<?xml version="1.0" encoding="utf-8"?>
<!-- Generator: Adobe Illustrator 21.0.0, SVG Export Plug-In . SVG Version: 6.00 Build 0)  -->
<svg version="1.1" id="Layer_1" xmlns="http://www.w3.org/2000/svg" xmlns:xlink="http://www.w3.org/1999/xlink" x="0px" y="0px"
	 viewBox="0 0 390 349.5" style="enable-background:new 0 0 390 349.5;" xml:space="preserve">
<style type="text/css">
	.st0{fill:url(#SVGID_1_);}
	.st1{fill:#DAD7C5;stroke:#C8EAF5;stroke-miterlimit:10;}
	.st2{fill:none;stroke:#000000;stroke-width:2;stroke-miterlimit:10;}
	.st3{fill:#231F20;stroke:#000000;stroke-miterlimit:10;}
	.st4{fill:none;stroke:#000000;stroke-miterlimit:10;}
	.st5{fill:#C8EAF5;}
	.st6{font-family:'MarkerFelt-Thin';}
	.st7{font-size:29.064px;}
</style>
<linearGradient id="SVGID_1_" gradientUnits="userSpaceOnUse" x1="41.9092" y1="176.6429" x2="385.2688" y2="176.6429" gradientTransform="matrix(0.9539 4.100000e-03 4.100000e-03 0.9996 9.967196e-02 -0.5983)">
	<stop  offset="0" style="stop-color:#507282;stop-opacity:0.56"/>
	<stop  offset="0.2659" style="stop-color:#507282"/>
	<stop  offset="0.6667" style="stop-color:#335C64"/>
	<stop  offset="1" style="stop-color:#7895A4;stop-opacity:0.56"/>
</linearGradient>
<polygon class="st0" points="299.8,318.2 136.1,332.9 40.9,191.6 109.4,35.5 273.1,20.8 368.3,162.1 "/>
<path class="st1" d="M273.9,106.6c-11.3-7.7-24.3-22-24.3-22c-12-14.7-21.3-15.7-29.7-19c-5.2-2-10.5-4-16.1-4.2
	c-5.8-0.2-11.8-1.2-17.4,0c-4.3,0.9-8.6,3.7-12.7,5.4c-7.2,3-15.3,8.6-19.8,15.1c-4.3,6.3-19,27-19,27c-9,9-21,28-21,28
	c-13,18.7,6.7,37.3,14.3,39.7c5.9,1.8,12.1,4.7,17.3,11c5.2,6.3,5.3,6.3,5.3,6.3c9.3-4,6.7-18.7,6.7-18.7c-0.3-9,4-16,4-16l1.3,20.3
	c3.3,22,0,28.3,0,28.3c-9.3,19.3-17.3,44-17.3,44l115.3-9c-3.7-17.7-11.3-25.3-11.3-25.3c-9.7-15-7.7-42-7.7-42
	c-3.7-23.3,5-39.3,5-39.3c-3.2,21.7,10.2,52.4,10.2,52.4s-3.2-8.4,2.8-17.5c6-9.1,9.3-10.2,9.3-10.2c18.7-10,19.7-25.7,19.7-25.7
	C292.9,121.2,273.9,106.6,273.9,106.6z M150.2,131.2l8,21.7C150.2,145.9,150.2,131.2,150.2,131.2z"/>
<path class="st2" d="M30.9,76.9"/>
<path class="st3" d="M204.6,105.4c2.2-1.7,1.2-4.5-1.1-4.2c-2.3,0.3-3.3-0.7-3,1.8c0.3,2.5,7.7,5.1,10.3,3.6c5-2.8,1.6-11.8-5-11.1
	l-12.5,0c0,0-4.3-0.5-7.5,2.4c-2.5,2.2-2.5,5.8-0.2,8.2s9.2,1.8,9.5-1.5c0.3-3.3-0.7-3.6-4-3c-3.3,0.6-1.8,4.5,1.3,5.6"/>
<path class="st4" d="M176.4,91.4c0,0-9.5-1.3-14,4.1"/>
<path class="st4" d="M215.9,85.9c0,0,10.5-2.5,18,0"/>
<path class="st4" d="M169.4,144.9c0,0,8.2,6,12.4,2.5c4.1-3.5,7.2-14.9,18.7-18.7c0,0,9.2,0,14.5,9.9c4.6,8.7,12,5.8,19-0.7"/>
<path class="st4" d="M8.9,255.4"/>
<text transform="matrix(0.9129 -8.647499e-02 9.430000e-02 0.9955 158.3703 281.8334)"><tspan x="0" y="0" class="st5 st6 st7">Happy Pup</tspan><tspan x="0" y="34.9" class="st5 st6 st7">Playcare </tspan></text>
</svg>
